<?xml version="1.0" encoding="utf-8"?>
<!-- Generator: Adobe Illustrator 24.0.1, SVG Export Plug-In . SVG Version: 6.00 Build 0)  -->
<svg version="1.1" id="Layer_1" focusable="false" xmlns="http://www.w3.org/2000/svg" xmlns:xlink="http://www.w3.org/1999/xlink"
	 x="0px" y="0px" viewBox="0 0 512 512" style="enable-background:new 0 0 512 512;" xml:space="preserve">
<style type="text/css">
	.st0{fill:#FFFFFF;stroke:#000000;stroke-miterlimit:10;}
	.st1{fill:#FF0000;}
</style>
<path class="st0" d="M502.3,174.8c3.9-3.1,9.7-0.2,9.7,4.7V384c0,26.5-21.5,48-48,48H48c-26.5,0-48-21.5-48-48V182.4v-2.8
	c0-5,5.7-7.8,9.7-4.7c21.5,16.7,49.6,37.6,141.5,104.5c4.1,3,8.3,6,12.6,9.1c15.2,11.1,37.9,31,62.7,41.2c9.6,4,19.6,6.5,29.5,6.4
	c35.7,0.3,72-32.8,92.3-47.6C450.3,214.4,479.9,192.2,502.3,174.8z M256,304c23.2,0.4,56.6-29.2,73.4-41.4
	c132.7-96.3,142.8-104.7,173.4-128.7c5.8-4.5,9.2-11.5,9.2-18.9V96c0-26.5-21.5-48-48-48H48C21.5,48,0,69.5,0,96v19
	c0,7.4,3.4,14.3,9.2,18.9c30.6,23.9,40.7,32.4,173.4,128.7C199.4,274.8,232.8,304.4,256,304L256,304z"/>
<polyline class="st1" points="0,147.7 0.3,177.6 2.8,174.5 5.1,173.7 7.3,173.8 9.7,174.9 25.3,186.9 42.9,200.1 112.1,250.9 
	181.9,302.3 212.1,322.7 225.3,329.2 232.3,331.9 240.4,334.2 248.6,335.7 260.7,335.9 272.2,334.1 289.6,328 315.6,312.9 
	335.2,298.5 364.7,276.6 389.3,258.6 482.1,190.3 502.3,174.8 503.7,174 505.6,173.5 507.6,173.5 509,174.4 510.4,175.5 
	511.9,178.4 511.9,169 511.9,117.2 504.5,128.2 487.3,146.1 461.9,165.4 418.5,199.8 342.9,253.4 304.3,281.6 285.8,293.3 
	277.5,298.1 268.6,300.9 259.6,302.8 243.8,297.5 237.6,292.6 128.8,223.5 19.2,141.7 0,120.7 "/>
</svg>
